<?xml version="1.0" standalone="no"?>
<!DOCTYPE svg PUBLIC "-//W3C//DTD SVG 20010904//EN"
 "http://www.w3.org/TR/2001/REC-SVG-20010904/DTD/svg10.dtd">
<svg version="1.0" xmlns="http://www.w3.org/2000/svg"
 width="564.000000pt" height="564.000000pt" viewBox="0 0 564.000000 564.000000"
 preserveAspectRatio="xMidYMid meet">
<metadata>
Created by potrace 1.14, written by Peter Selinger 2001-2017
</metadata>
<g transform="translate(0.000000,564.000000) scale(0.100000,-0.100000)"
fill="#000000" stroke="none">
<path d="M0 5218 c0 -416 0 -422 21 -444 24 -26 20 -74 -6 -74 -13 0 -15 -21
-14 -140 1 -77 3 -139 5 -138 1 2 12 73 23 158 12 85 24 171 27 190 3 23 2 30
-4 21 -8 -10 -13 -8 -26 10 -23 34 -20 46 15 58 l31 11 -5 -33 c-5 -29 -5 -30
5 -7 5 14 14 33 19 42 5 10 9 26 9 36 0 9 7 28 16 40 8 12 22 46 31 74 8 29
18 58 23 63 16 21 54 167 85 324 10 53 22 82 40 101 14 14 23 29 19 33 -3 3 3
16 15 28 12 13 21 33 21 46 l0 23 -175 0 -175 0 0 -422z m230 163 c0 -27 -4
-38 -15 -38 -8 0 -15 9 -15 19 0 10 5 18 10 18 6 0 8 11 4 26 -5 19 -4 25 5
20 6 -4 11 -24 11 -45z m-10 -71 c0 -5 -4 -10 -10 -10 -5 0 -10 5 -10 10 0 6
5 10 10 10 6 0 10 -4 10 -10z m-10 -46 c0 -8 -4 -14 -10 -14 -5 0 -7 -8 -4
-17 4 -13 3 -15 -4 -5 -11 16 -3 64 9 56 5 -3 9 -12 9 -20z"/>
<path d="M528 5612 c64 -104 100 -151 119 -156 12 -3 28 -13 37 -21 14 -14 15
-12 12 20 -2 25 -17 51 -52 91 -27 31 -53 65 -58 75 -6 13 -20 19 -42 19 l-34
0 18 -28z"/>
<path d="M2100 5625 c7 -8 19 -15 26 -15 8 0 14 -7 14 -15 0 -8 7 -15 15 -15
9 0 12 -6 8 -17 -3 -10 -3 -15 1 -11 4 3 34 -21 67 -55 32 -33 59 -56 60 -51
0 5 4 -1 9 -13 5 -13 23 -31 40 -41 16 -10 27 -22 23 -26 -4 -4 0 -4 10 0 14
5 16 2 11 -12 -4 -11 -3 -16 1 -11 11 10 116 -93 108 -106 -3 -6 -1 -7 4 -4 6
4 27 -13 48 -38 20 -25 31 -45 25 -45 -6 0 -8 -5 -5 -10 4 -6 12 -7 18 -3 7 4
6 0 -2 -10 -7 -9 -20 -17 -28 -17 -8 0 -11 -4 -8 -10 8 -13 4 -13 -41 6 -83
34 -123 54 -130 65 -35 57 -252 65 -571 22 -129 -17 -246 -27 -336 -28 -110 0
-140 -3 -147 -15 -13 -21 -12 -43 1 -34 6 4 71 13 143 20 72 7 175 20 229 28
54 9 128 18 165 21 207 17 316 23 335 19 65 -12 78 -18 100 -44 13 -15 30 -48
37 -74 7 -25 22 -56 34 -70 26 -29 43 -55 55 -83 6 -11 14 -24 20 -27 25 -16
-15 -174 -78 -313 -40 -89 -71 -196 -59 -208 13 -13 37 9 43 41 10 54 33 70
112 78 l70 7 18 60 c10 32 15 62 12 66 -4 3 -7 -1 -7 -10 0 -20 -31 -87 -41
-87 -12 0 -27 24 -33 56 -8 38 43 180 74 209 18 17 19 16 23 -41 l3 -59 2 61
c2 50 8 72 37 119 54 90 55 129 7 229 -3 5 1 5 9 0 20 -11 -51 69 -206 236
-113 121 -140 151 -140 160 0 5 -7 15 -15 22 -12 11 -12 10 0 -7 13 -18 12
-18 -2 -5 -8 8 -23 35 -32 60 -10 25 -23 48 -29 52 -7 4 -36 8 -66 8 -46 0
-52 -2 -41 -15z"/>
<path d="M2317 5628 c4 -7 15 -22 25 -33 55 -60 77 -91 73 -103 -3 -7 -1 -11
3 -8 11 6 147 -127 226 -220 84 -100 292 -321 351 -374 30 -26 17 -10 -31 40
-44 47 -111 120 -148 163 l-68 77 17 27 18 26 18 -24 c10 -13 19 -28 19 -32 0
-13 27 -37 34 -30 3 4 6 1 6 -5 0 -15 51 -74 58 -67 6 6 -132 208 -164 240
-27 27 -44 34 -25 11 7 -9 8 -17 2 -20 -5 -3 -18 10 -30 29 -15 25 -27 35 -45
35 -20 0 -24 4 -19 18 6 15 5 15 -11 3 -16 -14 -17 -13 -2 20 12 29 24 58 31
79 1 3 7 19 14 35 17 42 26 125 14 125 -6 0 -13 -17 -17 -38 -3 -21 -19 -56
-36 -77 -16 -22 -30 -44 -30 -48 0 -4 -9 -18 -21 -30 l-20 -22 -31 34 c-19 22
-28 40 -25 53 4 13 1 18 -7 15 -8 -3 -13 1 -12 11 0 9 -5 16 -12 14 -9 -2 -11
4 -7 18 5 14 3 18 -8 14 -7 -2 -20 3 -28 12 -13 16 -12 17 5 10 19 -7 19 -6 1
14 -14 15 -30 20 -72 20 -41 0 -52 -3 -46 -12z m420 -423 c8 -9 13 -18 11 -21
-3 -2 -13 5 -23 16 -21 23 -11 27 12 5z"/>
<path d="M2847 5583 c-5 -44 -1 -71 18 -127 13 -38 22 -73 19 -77 -2 -4 2 -34
10 -66 12 -51 23 -67 87 -134 118 -121 219 -240 258 -303 13 -20 31 -63 41
-96 16 -54 17 -60 2 -60 -9 0 -44 -7 -79 -16 -51 -13 -67 -13 -79 -4 -12 11
-13 10 -8 -3 4 -13 -12 -21 -81 -43 -47 -14 -84 -29 -81 -31 2 -2 52 8 111 22
59 15 115 28 124 30 9 2 35 10 59 18 23 8 42 10 42 5 0 -5 7 -2 16 6 14 14 14
23 2 68 -7 29 -29 77 -49 108 -42 65 -219 278 -278 335 -27 25 -41 48 -41 65
0 14 -9 65 -20 114 -11 50 -20 115 -20 145 l0 56 20 -25 c11 -14 36 -53 55
-87 20 -34 44 -68 54 -75 9 -7 26 -25 35 -40 10 -16 22 -28 27 -28 13 0 11 34
-3 48 -7 7 -9 12 -6 12 12 0 -23 74 -45 98 l-21 23 27 48 c15 27 27 54 27 60
0 7 -36 11 -109 11 l-108 0 -6 -57z"/>
<path d="M3199 5623 c-3 -41 5 -61 44 -118 23 -33 45 -64 49 -70 48 -60 76
-104 70 -110 -4 -5 -2 -5 5 -1 12 7 36 -26 28 -38 -3 -3 -2 -4 1 -1 4 2 25
-23 48 -58 23 -34 68 -95 101 -135 33 -40 73 -90 88 -110 109 -143 133 -166
60 -57 -74 111 -92 134 -165 218 -76 85 -76 86 -103 212 -28 134 -31 141 -52
123 -9 -7 -19 -11 -22 -9 -16 10 -32 43 -27 56 3 9 0 12 -10 8 -16 -6 -20 12
-4 22 6 4 8 11 5 16 -4 5 3 23 15 39 l21 30 -75 0 c-65 0 -76 -2 -77 -17z"/>
<path d="M4370 5630 c0 -6 7 -13 15 -16 8 -4 15 -10 15 -16 0 -12 30 -43 30
-31 0 4 5 0 11 -9 5 -10 17 -18 24 -18 8 0 15 -5 15 -11 0 -5 5 -7 11 -3 9 5
10 -1 5 -22 -4 -17 -3 -24 2 -16 6 9 13 7 30 -8 11 -11 26 -20 33 -20 6 0 8
-7 5 -16 -4 -11 -2 -15 8 -11 10 4 13 1 9 -9 -3 -9 0 -14 8 -12 9 2 13 -4 11
-14 -2 -10 3 -18 11 -18 8 0 17 -10 21 -22 8 -33 6 -30 44 -73 9 -12 13 -14 7
-5 -9 13 -8 13 8 1 10 -8 15 -21 12 -30 -3 -8 -3 -13 0 -9 7 7 45 -27 45 -41
0 -10 45 -41 60 -41 11 0 -35 70 -70 108 -10 10 -43 56 -75 103 -32 46 -73
105 -92 131 -24 33 -30 49 -21 54 7 5 37 -19 82 -67 76 -79 66 -55 -21 52 -29
36 -53 71 -53 77 0 16 -27 22 -111 22 -48 0 -79 -4 -79 -10z m154 -50 c-6 -5
-24 21 -24 34 0 6 6 1 14 -10 8 -10 12 -21 10 -24z"/>
<path d="M4830 5629 c0 -7 7 -17 14 -23 8 -6 16 -17 18 -24 2 -8 24 -35 51
-62 26 -27 47 -54 47 -60 0 -14 26 -49 81 -107 21 -23 39 -46 39 -51 0 -5 20
-31 45 -58 30 -32 45 -57 45 -76 0 -15 4 -29 9 -32 4 -3 11 -24 15 -46 3 -23
15 -60 25 -83 10 -23 28 -69 40 -102 12 -33 27 -67 32 -75 5 -8 14 -26 19 -40
28 -69 44 -100 50 -100 4 0 5 -11 2 -25 -2 -14 0 -25 6 -25 5 0 24 -36 42 -80
17 -43 38 -84 46 -91 8 -6 14 -17 14 -24 0 -7 9 -24 21 -39 11 -14 18 -30 15
-35 -3 -5 1 -11 9 -15 8 -3 15 -14 15 -24 0 -11 7 -25 15 -32 8 -7 15 -21 15
-31 0 -10 5 -21 10 -24 6 -3 10 -14 10 -23 0 -9 11 -39 25 -66 13 -27 22 -53
19 -58 -3 -4 0 -8 5 -8 8 0 11 236 11 775 l0 775 -405 0 c-296 0 -405 -3 -405
-11z"/>
<path d="M4121 5551 c-23 -30 -26 -44 -26 -112 0 -69 3 -79 25 -101 32 -31 75
-45 64 -20 -4 9 -9 34 -12 54 -2 21 -8 35 -13 32 -13 -8 -11 9 7 51 15 37 11
62 -6 35 -6 -8 -10 -11 -10 -6 0 4 11 21 25 38 14 16 25 38 25 49 0 32 -48 20
-79 -20z"/>
<path d="M2520 5476 c0 -2 8 -10 18 -17 15 -13 16 -12 3 4 -13 16 -21 21 -21
13z"/>
<path d="M3150 5378 c0 -9 5 -20 10 -23 13 -8 13 5 0 25 -8 13 -10 13 -10 -2z"/>
<path d="M802 5353 c36 -75 58 -130 64 -158 3 -19 10 -35 15 -35 5 0 9 -8 9
-17 0 -15 -2 -16 -10 -3 -8 13 -10 12 -10 -2 0 -23 19 -23 35 -1 11 15 15 15
30 3 18 -15 50 -71 47 -82 -1 -5 6 -8 16 -8 15 -1 15 -2 1 -10 -8 -5 -24 -7
-35 -5 -10 2 -29 4 -42 4 -13 1 -20 5 -17 11 3 6 -1 10 -10 10 -10 0 -14 5 -9
13 6 10 4 10 -7 0 -15 -15 -33 -17 -25 -4 3 5 -1 15 -10 22 -13 10 -17 10 -25
-2 -13 -21 -11 -27 15 -44 33 -22 77 -33 173 -45 153 -19 168 -22 202 -30 19
-5 36 -8 38 -6 8 7 -83 45 -114 48 -23 1 -35 9 -43 28 -7 14 -11 27 -10 29 1
2 -3 7 -8 10 -5 3 -19 21 -30 40 -36 60 -263 281 -240 234z"/>
<path d="M4190 5280 c0 -5 5 -10 10 -10 6 0 10 5 10 10 0 6 -4 10 -10 10 -5 0
-10 -4 -10 -10z"/>
<path d="M4455 5274 c9 -9 19 -13 23 -10 3 4 0 11 -8 16 -24 15 -33 11 -15 -6z"/>
<path d="M4480 5230 c0 -5 7 -10 15 -10 8 0 15 5 15 10 0 6 -7 10 -15 10 -8 0
-15 -4 -15 -10z"/>
<path d="M4325 5222 c6 -6 80 -34 165 -62 85 -29 171 -61 190 -71 64 -33 111
-85 243 -269 9 -14 6 -2 -8 25 -34 66 -48 88 -62 98 -7 4 -13 17 -13 27 0 11
-6 20 -13 20 -6 0 -26 14 -42 32 -37 39 -118 92 -182 117 -26 11 -42 20 -34
20 33 2 -2 14 -49 17 -44 4 -93 17 -185 50 -14 5 -17 4 -10 -4z"/>
<path d="M1277 5080 c-12 -14 -13 -20 -4 -20 14 0 37 20 37 32 0 14 -15 9 -33
-12z"/>
<path d="M1090 5062 c0 -5 7 -15 15 -22 8 -7 15 -9 15 -6 0 4 -7 14 -15 22 -8
9 -15 11 -15 6z"/>
<path d="M887 4873 c-4 -3 -7 -25 -7 -47 0 -37 -8 -122 -43 -465 l-12 -115
-143 -72 c-78 -40 -156 -77 -173 -83 l-30 -10 4 37 c3 20 12 57 21 81 24 66
19 74 -8 11 -55 -130 -78 -161 -141 -196 -33 -18 -125 -51 -204 -73 -80 -23
-147 -44 -150 -46 -14 -15 14 -16 51 -2 24 8 68 21 98 28 30 6 62 15 70 20 8
4 38 15 65 25 67 23 446 211 516 256 l55 35 2 79 c2 43 9 149 18 234 29 305
30 322 11 303z"/>
<path d="M1971 4744 c0 -11 3 -14 6 -6 3 7 2 16 -1 19 -3 4 -6 -2 -5 -13z"/>
<path d="M5011 4675 c92 -159 108 -189 102 -199 -4 -5 -1 -6 7 -1 8 5 11 3 8
-6 -3 -8 1 -26 8 -41 15 -29 11 -30 -40 -9 -16 6 -36 9 -43 7 -8 -3 -11 -1 -8
4 3 6 0 11 -7 12 -7 0 -17 2 -23 2 -5 1 -16 5 -24 10 -11 7 -11 10 0 18 10 7
8 8 -8 5 -13 -3 -31 3 -44 14 -12 10 -26 19 -30 19 -5 0 -37 24 -71 53 -110
91 -247 187 -269 187 -7 0 5 -12 25 -27 21 -16 52 -41 70 -58 18 -16 22 -21 9
-11 -13 11 -23 14 -23 8 0 -15 40 -42 63 -42 10 0 15 -5 12 -11 -4 -6 2 -13
14 -16 11 -3 18 -9 15 -14 -4 -8 18 -36 81 -103 11 -11 27 -34 35 -51 8 -16
24 -38 35 -47 11 -10 16 -17 12 -18 -14 0 13 -40 28 -40 8 0 15 -8 16 -17 0
-10 9 -31 19 -48 39 -63 80 -145 80 -160 0 -8 3 -15 8 -15 9 0 57 -121 54
-137 -2 -7 1 -13 7 -13 5 0 9 -10 9 -22 -1 -13 7 -50 17 -83 34 -117 44 -186
46 -322 2 -65 -4 -77 -82 -194 -20 -30 -71 -121 -114 -204 -42 -82 -88 -165
-102 -183 -29 -39 -102 -99 -249 -207 -171 -125 -310 -254 -601 -559 -106
-111 -173 -196 -173 -220 0 -6 21 20 46 58 49 73 196 224 202 207 6 -19 -61
-198 -129 -342 -71 -150 -85 -201 -94 -347 -5 -99 -46 -239 -74 -257 -15 -8
-61 13 -61 29 0 13 -47 25 -128 31 -47 4 -49 11 -17 45 16 17 24 30 18 30 -6
0 -50 -13 -99 -29 -80 -27 -86 -30 -60 -37 16 -4 36 -14 45 -24 16 -16 19 -24
27 -64 6 -31 47 -130 61 -147 7 -8 13 -23 13 -32 0 -9 9 -38 19 -65 11 -27 25
-77 32 -113 6 -35 21 -84 32 -109 23 -49 23 -89 2 -106 -11 -8 -11 -14 -3 -22
6 -6 8 -15 3 -19 -4 -5 -10 -2 -12 5 -5 14 -23 16 -23 3 0 -6 -16 -27 -35 -48
-42 -46 -29 -55 25 -19 22 14 43 26 46 26 4 0 14 7 23 15 9 8 30 26 48 40 38
31 42 68 5 54 -30 -11 -32 -11 -32 2 0 5 4 8 9 5 5 -3 14 1 21 9 17 21 23 19
60 -17 l32 -33 -21 36 c-12 20 -43 51 -70 69 -51 35 -61 56 -61 124 l0 32 118
22 c100 18 133 29 223 75 l105 54 22 -31 c12 -18 22 -36 22 -40 0 -4 13 -24
28 -44 94 -122 113 -152 106 -163 -4 -7 -3 -9 3 -6 12 8 36 -17 39 -41 2 -8 8
-18 14 -22 7 -4 12 -11 13 -16 1 -5 5 -8 9 -7 3 1 13 -14 21 -35 15 -36 33
-62 90 -125 15 -17 27 -34 27 -39 0 -8 21 -34 68 -86 12 -14 22 -33 22 -42 0
-10 7 -23 15 -30 8 -7 15 -20 15 -29 0 -9 9 -22 20 -29 11 -7 20 -19 20 -28 0
-10 6 -14 15 -11 17 7 30 -9 15 -18 -6 -4 -8 -11 -4 -16 3 -5 10 -6 16 -3 7 5
9 0 5 -15 -4 -15 0 -24 10 -28 14 -5 13 -8 -3 -20 -17 -13 -17 -14 2 -29 18
-15 18 -15 -3 -9 -27 7 -33 -19 -8 -33 13 -7 14 -14 5 -36 -5 -15 -10 -32 -10
-37 0 -5 172 -9 435 -9 l435 0 0 475 c0 414 -2 476 -15 481 -8 4 -15 10 -15
15 0 5 7 9 15 9 27 0 18 57 -15 92 -16 17 -30 34 -30 37 0 3 -17 25 -38 48
-20 23 -55 62 -76 87 -58 70 -63 55 -6 -20 27 -37 50 -72 50 -78 -1 -42 -82
-72 -128 -47 -36 20 -154 53 -173 48 -10 -3 -19 -2 -19 2 0 4 -48 18 -107 30
-124 27 -179 45 -281 95 -40 20 -78 36 -85 36 -7 0 -17 4 -23 8 -13 11 -64 33
-64 27 0 -3 30 -21 68 -40 l67 -35 -134 5 c-73 3 -143 7 -155 10 -32 6 -126
16 -126 12 0 -14 250 -382 293 -430 41 -46 87 -114 87 -127 0 -6 5 -8 12 -4 8
5 9 2 5 -9 -4 -10 -2 -16 5 -14 5 1 19 -14 30 -33 11 -19 27 -39 36 -46 9 -7
12 -16 7 -24 -5 -8 -4 -11 2 -7 5 3 19 -6 31 -22 19 -26 19 -29 4 -46 -16 -17
-16 -17 1 -12 13 5 17 1 17 -19 0 -17 4 -23 13 -18 6 4 2 -3 -10 -15 -28 -27
-29 -35 -4 -28 16 4 18 1 12 -16 -4 -12 -13 -22 -20 -23 -6 -1 -7 0 -1 3 18 9
11 21 -17 26 -14 3 -43 -1 -64 -8 -44 -16 -34 -23 -176 130 -165 180 -403 490
-403 524 0 6 29 29 63 51 75 47 87 67 74 126 -10 41 -12 44 -54 50 -54 8 -77
31 -99 97 -13 40 -14 51 -3 58 7 4 17 5 21 3 4 -3 8 0 8 6 0 6 4 8 10 5 5 -3
18 -1 29 5 13 7 28 7 45 0 42 -16 30 -2 -21 24 -134 69 -174 172 -123 317 22
63 124 274 161 336 11 17 35 40 53 51 44 26 77 84 126 218 32 88 47 116 77
142 34 31 38 32 44 15 7 -16 8 -15 8 5 1 30 25 28 47 -5 14 -22 19 -48 19
-117 1 -89 1 -90 28 -97 35 -9 99 6 145 35 30 19 112 100 112 111 0 1 17 21
38 43 20 22 50 58 66 81 16 22 34 37 40 34 7 -4 7 -1 -1 8 -6 8 -11 18 -11 22
0 5 -4 12 -8 15 -4 4 -3 1 1 -7 6 -11 4 -13 -7 -8 -9 3 -21 0 -27 -6 -6 -6
-14 -8 -17 -4 -4 3 8 21 27 38 l34 32 -52 -28 c-29 -15 -78 -49 -110 -74 -57
-46 -109 -124 -96 -144 4 -7 10 2 15 18 11 45 90 125 122 125 10 0 -45 -143
-70 -181 -13 -21 -39 -49 -58 -64 -59 -45 -95 -18 -116 90 -7 33 -19 73 -27
88 -19 37 -13 50 38 87 44 32 59 37 59 19 0 -5 -6 -7 -12 -3 -9 5 -9 2 1 -9 9
-12 10 -17 2 -17 -7 0 -10 -4 -7 -8 3 -5 -2 -34 -10 -66 -8 -32 -13 -74 -11
-94 l4 -37 1 42 c3 65 69 199 128 257 8 9 12 16 7 16 -15 0 51 51 152 119 143
95 186 140 213 226 12 39 22 78 22 88 0 10 7 20 15 23 9 4 13 14 10 28 -3 11
-1 35 4 51 5 17 10 24 10 16 1 -13 59 42 62 58 1 3 3 17 5 31 1 14 6 37 10 53
8 34 -9 36 -25 1 -7 -16 -17 -24 -26 -21 -7 3 -16 1 -18 -6 -2 -7 -5 17 -5 53
-1 36 -4 97 -8 135 -3 41 -1 81 5 98 15 40 3 33 -15 -8 -7 -19 -14 -51 -14
-72 -1 -21 -7 -49 -14 -62 -12 -22 -14 -18 -21 50 -10 94 -10 97 28 137 31 33
31 40 -3 22 -17 -9 -18 -7 -8 27 6 21 7 58 4 83 -22 158 -35 289 -52 510 -3
47 -10 89 -15 95 -16 17 -9 27 7 10 16 -16 82 -133 110 -194 9 -19 18 -68 21
-108 3 -41 10 -76 14 -79 12 -7 11 -180 -1 -244 -6 -30 -18 -62 -27 -72 -19
-22 -16 -22 67 -2 109 26 120 27 120 14 0 -7 -8 -9 -20 -5 -18 6 -19 4 -10
-19 5 -15 17 -41 26 -58 25 -48 29 -185 10 -298 -16 -91 -49 -224 -66 -265
-24 -55 -28 -158 -9 -181 6 -8 -22 -31 -87 -73 -52 -35 -93 -65 -91 -68 3 -2
23 7 45 21 65 41 187 97 142 65 -12 -8 -9 -9 12 -5 16 4 28 1 31 -7 4 -9 8 -8
16 3 6 8 11 11 11 6 0 -6 7 -1 15 10 11 14 15 16 15 4 0 -12 3 -11 11 3 5 9
17 17 24 17 12 0 15 14 15 60 0 33 -2 60 -5 60 -2 0 -13 -10 -25 -22 -24 -26
-26 -17 -4 17 9 14 20 22 25 19 5 -3 9 7 9 23 l0 28 -35 -40 c-19 -22 -35 -43
-35 -46 0 -4 -7 -9 -15 -13 -8 -3 -14 -2 -13 2 3 14 -14 42 -23 36 -5 -3 -3
10 5 28 8 18 26 76 42 128 56 197 64 248 70 445 6 177 5 193 -14 235 -12 25
-30 55 -41 67 -12 12 -21 25 -21 28 0 3 -8 18 -18 33 -67 99 -80 120 -93 149
-7 17 -17 29 -21 27 -4 -3 -8 1 -8 8 0 7 -29 59 -65 116 -36 57 -65 107 -65
111 0 5 -13 24 -30 42 -16 19 -30 39 -30 44 0 6 -6 17 -13 26 -11 14 -12 2
-10 -66 3 -119 -11 -126 -70 -38 -24 37 -54 86 -66 108 -21 40 -84 131 -103
150 -5 6 14 -30 43 -80z m457 -633 c-10 -2 -18 -8 -18 -14 0 -6 -3 -8 -6 -5
-11 10 17 38 30 30 7 -5 5 -9 -6 -11z m75 -60 c-4 -22 -2 -24 7 -12 9 12 11
10 6 -12 -5 -23 -3 -26 17 -21 17 4 16 1 -7 -11 -37 -21 -49 -7 -39 44 5 30 4
33 -9 23 -16 -14 -28 -8 -28 14 0 7 7 13 15 13 8 0 15 6 15 13 1 7 6 5 14 -6
7 -9 11 -29 9 -45z m-115 -92 c-2 -22 -7 -40 -12 -40 -4 0 -6 10 -2 23 3 12 6
30 6 40 0 9 2 17 5 17 3 0 4 -18 3 -40z m92 30 c0 -5 -4 -10 -10 -10 -5 0 -10
5 -10 10 0 6 5 10 10 10 6 0 10 -4 10 -10z m-140 -530 c0 -5 -2 -10 -4 -10 -3
0 -8 5 -11 10 -3 6 -1 10 4 10 6 0 11 -4 11 -10z m-99 -24 c11 7 11 0 -1 -51
-5 -22 -14 -76 -20 -120 -15 -109 -38 -155 -98 -201 -48 -38 -110 -77 -124
-78 -3 -1 -9 -4 -13 -8 -4 -4 -13 -4 -21 -1 -9 3 -14 0 -12 -8 2 -8 -4 -13
-13 -11 -9 1 -19 -4 -23 -13 -3 -8 -10 -15 -16 -15 -6 0 1 12 15 28 15 15 39
45 53 67 48 74 62 85 108 85 52 0 71 19 56 57 -23 61 -22 90 4 140 36 68 88
143 92 132 2 -5 8 -7 13 -3z m-814 -906 c-1 -11 -5 -20 -9 -20 -4 0 -5 -6 -2
-14 9 -23 -72 -156 -94 -156 -15 0 -15 -2 -2 -10 8 -5 10 -10 4 -10 -6 0 -17
7 -24 15 -7 8 -9 15 -4 15 5 0 2 5 -6 10 -25 16 -13 71 24 106 44 40 99 84
108 84 4 0 6 -9 5 -20z m-187 -135 c0 -23 0 -22 15 -58 16 -39 11 -49 -35 -67
-19 -7 -42 -19 -50 -25 -8 -7 -25 -15 -37 -18 -20 -5 -23 -1 -23 28 0 27 11
46 56 94 57 62 74 73 74 46z m-3 -188 c-91 -154 -237 -447 -237 -473 0 -5 11
9 24 31 30 48 32 44 45 -85 10 -101 47 -226 88 -300 43 -78 42 -82 -40 -123
-67 -33 -147 -98 -147 -118 0 -28 -118 -94 -156 -86 -13 2 -21 0 -18 -4 5 -8
-9 -13 -66 -23 -14 -3 -35 -8 -47 -12 -19 -5 -23 0 -34 38 -6 23 -12 69 -13
101 -1 46 3 60 17 68 18 11 24 49 7 49 -5 0 -10 -8 -10 -17 0 -25 -10 -10 -35
52 -13 30 -19 55 -14 55 5 0 9 -5 9 -11 0 -5 5 -7 10 -4 16 10 50 -5 50 -21 0
-8 5 -14 10 -14 6 0 10 5 10 11 0 12 59 3 74 -12 41 -38 80 33 128 226 51 209
89 335 132 434 23 53 53 124 65 159 13 34 29 66 35 70 14 9 118 50 129 51 5 1
-2 -18 -16 -42z m220 -873 c27 -4 100 -54 80 -54 -6 0 81 -95 198 -216 125
-129 235 -223 297 -253 32 -16 54 -31 51 -35 -3 -3 5 -6 18 -6 13 0 31 -5 39
-10 17 -11 -42 -6 -101 8 -49 12 -239 106 -266 131 -12 12 -25 21 -28 21 -6 0
-45 32 -89 74 -17 16 -41 35 -53 43 -13 8 -20 20 -16 26 3 6 1 7 -5 3 -6 -4
-21 3 -32 14 -11 11 -25 18 -29 15 -10 -6 -32 18 -35 38 -1 8 -15 30 -31 49
-61 71 -76 93 -71 111 2 9 0 15 -4 12 -7 -5 -30 24 -30 37 0 4 57 0 107 -8z
m161 -51 c4 -39 -10 -42 -32 -8 -22 34 -20 47 7 43 17 -2 23 -11 25 -35z m251
-3 c37 -15 86 -33 111 -40 62 -16 130 -51 130 -67 0 -8 -13 -14 -32 -15 l-33
-1 34 -4 c19 -3 45 -11 57 -20 13 -8 31 -12 40 -9 8 3 24 2 33 -4 12 -6 31 -6
50 0 24 6 33 6 37 -4 3 -8 32 -13 90 -15 64 -1 84 1 79 10 -5 7 -3 10 6 7 8
-3 24 -1 36 3 28 10 60 -26 41 -48 -7 -9 -7 -13 1 -13 6 0 11 -4 11 -8 0 -5
-13 -7 -30 -4 -43 6 -37 -5 10 -18 37 -10 58 -40 28 -40 -9 0 -8 -4 2 -10 13
-8 13 -10 -1 -10 -9 0 -33 -15 -54 -34 l-37 -35 -90 5 c-49 2 -98 8 -108 14
-10 5 -28 10 -39 10 -29 0 -121 42 -115 52 3 4 -2 8 -10 8 -9 0 -15 -5 -14
-11 2 -6 -3 -14 -9 -16 -8 -3 -13 5 -14 19 -1 17 -3 18 -6 6 -2 -10 -10 -18
-16 -18 -22 0 -197 92 -226 119 -16 15 -34 25 -41 23 -9 -3 -11 1 -7 12 4 9 2
17 -3 17 -6 1 -14 2 -20 3 -5 0 -21 18 -35 39 -14 20 -30 37 -35 37 -5 0 -14
17 -19 38 -13 46 -14 55 -1 47 6 -3 10 -2 10 2 0 19 125 1 189 -27z m661 -137
c0 -2 -4 -3 -10 -3 -5 0 -10 5 -10 11 0 6 -7 17 -15 25 -8 9 -15 20 -15 27 0
6 11 -4 25 -23 14 -19 25 -35 25 -37z m-353 21 c-5 -5 -57 13 -57 20 0 3 14 0
31 -6 16 -6 28 -12 26 -14z m-562 -194 c16 -17 16 -20 3 -15 -9 4 -19 13 -22
21 -7 19 -2 18 19 -6z"/>
<path d="M4542 1050 c7 -10 14 -18 15 -16 6 6 -9 36 -18 36 -5 0 -4 -9 3 -20z"/>
<path d="M5533 943 c9 -2 23 -2 30 0 6 3 -1 5 -18 5 -16 0 -22 -2 -12 -5z"/>
<path d="M5455 910 c3 -5 10 -10 16 -10 5 0 9 5 9 10 0 6 -7 10 -16 10 -8 0
-12 -4 -9 -10z"/>
<path d="M3395 4731 c-69 -6 -68 -6 50 -13 66 -5 147 -10 180 -13 47 -3 39 0
-40 15 -55 10 -104 18 -110 18 -5 -1 -41 -4 -80 -7z"/>
<path d="M3710 4710 c-14 -5 -18 -8 -9 -9 9 -1 22 -8 29 -16 7 -9 23 -13 36
-11 13 3 24 3 24 1 0 -2 -27 -35 -61 -72 -33 -37 -64 -77 -69 -89 -19 -47 -86
-142 -133 -187 -33 -31 -47 -51 -41 -57 7 -7 20 0 39 20 16 16 35 30 42 30 7
0 13 5 13 11 0 6 13 29 29 52 15 23 47 74 69 112 22 39 57 88 77 110 38 42 56
74 54 103 0 11 -3 12 -6 5 -6 -15 -39 -17 -48 -3 -7 11 -10 11 -45 0z"/>
<path d="M1925 4682 c-19 -27 -19 -27 0 -12 39 30 48 40 33 40 -7 0 -22 -13
-33 -28z"/>
<path d="M2561 4664 c0 -11 3 -14 6 -6 3 7 2 16 -1 19 -3 4 -6 -2 -5 -13z"/>
<path d="M2888 4603 c7 -3 16 -2 19 1 4 3 -2 6 -13 5 -11 0 -14 -3 -6 -6z"/>
<path d="M2798 4583 c6 -2 18 -2 25 0 6 3 1 5 -13 5 -14 0 -19 -2 -12 -5z"/>
<path d="M2748 4575 c-3 -3 -52 -16 -109 -30 -57 -13 -95 -24 -84 -24 29 -1
192 36 213 48 14 9 15 10 1 11 -9 0 -18 -2 -21 -5z"/>
<path d="M3445 4520 c-9 -14 4 -52 16 -45 5 4 5 13 -1 24 -5 10 -6 21 -3 25 3
3 4 6 0 6 -3 0 -9 -5 -12 -10z"/>
<path d="M1300 4509 c0 -5 5 -7 10 -4 6 3 10 8 10 11 0 2 -4 4 -10 4 -5 0 -10
-5 -10 -11z"/>
<path d="M1245 4443 c-22 -25 -41 -52 -43 -59 -2 -7 -13 -16 -24 -20 -17 -5
-11 -10 32 -25 30 -10 56 -17 58 -14 3 3 1 5 -4 5 -6 0 -18 6 -28 13 -17 13
-17 16 -2 44 8 17 22 37 29 45 13 13 33 58 25 58 -2 0 -21 -21 -43 -47z"/>
<path d="M3379 4383 c-13 -16 -12 -17 4 -4 16 13 21 21 13 21 -2 0 -10 -8 -17
-17z"/>
<path d="M532 4370 c0 -14 2 -19 5 -12 2 6 2 18 0 25 -3 6 -5 1 -5 -13z"/>
<path d="M3482 4353 c-23 -13 -40 -29 -37 -34 7 -10 72 30 79 49 3 6 4 12 3
11 -1 -1 -21 -12 -45 -26z"/>
<path d="M4130 4324 c45 -30 99 -87 93 -97 -4 -6 -1 -7 7 -2 10 6 12 4 7 -7
-4 -11 -1 -14 12 -11 24 6 152 -80 143 -96 -2 -3 2 -7 9 -10 8 -2 9 1 3 10 -7
12 -5 12 9 0 20 -16 23 -26 5 -15 -9 5 -8 2 1 -10 11 -13 16 -14 22 -4 8 12
13 4 10 -14 0 -4 7 -4 16 -1 11 4 14 3 9 -6 -5 -8 -3 -11 7 -9 13 3 110 -75
155 -124 9 -10 22 -18 30 -18 7 0 10 -4 7 -10 -3 -5 -2 -10 3 -10 4 0 23 -15
42 -32 18 -18 30 -26 26 -18 -7 13 -6 13 6 0 7 -8 66 -59 131 -113 65 -55 122
-109 127 -120 8 -21 9 -21 9 -2 1 21 -20 42 -283 287 -102 95 -204 178 -285
233 -69 47 -166 115 -216 150 -49 35 -99 64 -110 64 -17 1 -17 -1 5 -15z"/>
<path d="M4811 4156 c7 -15 15 -23 17 -16 3 7 -3 19 -13 28 -15 16 -16 15 -4
-12z"/>
<path d="M4325 4151 c-3 -6 4 -15 15 -21 20 -11 21 -10 10 9 -12 23 -16 25
-25 12z"/>
<path d="M3820 4096 c0 -5 30 -14 103 -32 16 -3 27 -2 27 4 0 5 -21 13 -47 16
-27 4 -56 9 -65 12 -10 3 -18 3 -18 0z"/>
<path d="M4186 4045 c-3 -9 -2 -13 4 -10 6 3 10 0 10 -8 0 -8 7 -20 15 -27 12
-10 15 -10 15 3 0 11 6 14 15 11 11 -4 13 -2 9 9 -3 8 -13 18 -22 21 -9 3 -22
8 -28 11 -6 3 -14 -1 -18 -10z"/>
<path d="M1220 4042 c0 -26 164 -116 330 -182 106 -42 35 0 -120 70 -88 40
-171 84 -185 98 -14 13 -25 20 -25 14z"/>
<path d="M2005 4022 l30 -4 -30 -13 c-24 -11 -26 -14 -10 -14 17 -1 17 -3 5
-11 -13 -8 -13 -10 2 -10 12 0 15 -5 11 -17 -4 -11 9 -4 35 17 23 19 42 40 42
46 0 6 -23 11 -57 11 -32 0 -44 -2 -28 -5z"/>
<path d="M1751 3864 c0 -11 3 -14 6 -6 3 7 2 16 -1 19 -3 4 -6 -2 -5 -13z"/>
<path d="M4107 3874 c-4 -4 -7 -14 -7 -23 0 -11 3 -12 11 -4 6 6 10 16 7 23
-2 6 -7 8 -11 4z"/>
<path d="M1730 3829 c0 -5 5 -7 10 -4 6 3 10 8 10 11 0 2 -4 4 -10 4 -5 0 -10
-5 -10 -11z"/>
<path d="M2656 3831 c43 -40 191 -125 262 -151 87 -32 274 -81 302 -79 8 0
-34 13 -95 29 -60 15 -146 46 -190 68 -44 22 -97 45 -117 51 -20 7 -64 30 -98
52 -57 36 -86 50 -64 30z"/>
<path d="M3625 3807 c17 -14 27 -29 23 -33 -4 -4 2 -16 15 -27 12 -11 15 -18
7 -15 -8 3 -21 -1 -28 -8 -10 -11 -5 -17 28 -34 22 -11 40 -25 40 -30 0 -13
107 -13 115 0 4 6 -7 10 -25 10 -24 0 -31 4 -27 14 4 10 -2 16 -16 18 -13 2
-22 10 -22 20 0 9 -4 20 -9 25 -5 4 -6 3 -2 -4 12 -22 -10 -14 -30 9 -19 22
-19 23 1 8 19 -14 19 -14 3 6 -10 11 -37 30 -60 43 l-43 23 30 -25z"/>
<path d="M1725 3795 c17 -7 32 -11 35 -9 7 8 -24 24 -45 23 -15 0 -13 -4 10
-14z"/>
<path d="M3393 3793 c-13 -9 -23 -26 -23 -40 0 -13 -5 -33 -10 -44 -15 -28 6
-25 22 4 13 22 48 33 48 15 0 -5 4 -7 9 -4 17 11 32 -47 26 -99 l-7 -53 -52
14 c-28 8 -71 13 -96 13 l-45 -1 55 -12 c62 -13 120 -45 150 -83 26 -33 37
-23 20 17 -9 22 -11 59 -7 122 5 72 3 95 -10 114 -16 25 -34 32 -29 12 1 -7 1
-10 -1 -6 -2 4 -11 4 -19 1 -8 -3 -14 0 -14 7 0 6 4 9 9 5 6 -3 9 4 8 15 -2
24 -5 24 -34 3z"/>
<path d="M4035 3778 c-22 -6 -49 -18 -60 -26 l-20 -14 20 7 c11 4 40 12 65 17
25 6 49 14 55 19 11 11 -7 10 -60 -3z"/>
<path d="M5380 3760 c-12 -8 -10 -10 8 -10 13 0 20 4 17 10 -7 12 -6 12 -25 0z"/>
<path d="M741 3665 c-96 -21 -157 -44 -177 -66 -17 -19 -17 -19 21 -3 36 15
38 15 26 0 -11 -13 -11 -16 2 -16 25 0 60 16 84 39 12 12 53 28 90 37 37 8 70
17 72 20 9 8 -55 2 -118 -11z"/>
<path d="M866 3640 c12 -5 70 -54 129 -110 150 -141 279 -237 307 -228 6 2 -6
15 -28 28 -21 14 -96 78 -166 142 -134 124 -208 178 -242 177 -21 0 -21 0 0
-9z"/>
<path d="M3954 3504 c-92 -117 -160 -199 -210 -253 -31 -34 -52 -61 -48 -61
16 0 219 223 259 283 43 65 43 87 -1 31z"/>
<path d="M3355 3450 c-3 -5 -1 -10 4 -10 6 0 11 5 11 10 0 6 -2 10 -4 10 -3 0
-8 -4 -11 -10z"/>
<path d="M4648 3420 c-41 -22 -62 -40 -74 -65 -9 -19 -24 -35 -33 -35 -19 0
-48 -17 -41 -24 11 -11 125 24 135 41 6 10 32 39 60 66 59 56 42 62 -47 17z"/>
<path d="M4860 3360 c-20 -6 -21 -8 -5 -8 11 0 31 4 45 8 20 6 21 8 5 8 -11 0
-31 -4 -45 -8z"/>
<path d="M4778 3343 c7 -3 16 -2 19 1 4 3 -2 6 -13 5 -11 0 -14 -3 -6 -6z"/>
<path d="M4675 3330 c-27 -7 -27 -8 -5 -8 14 0 36 4 50 8 20 6 21 8 5 8 -11 0
-33 -4 -50 -8z"/>
<path d="M5341 3284 c0 -11 3 -14 6 -6 3 7 2 16 -1 19 -3 4 -6 -2 -5 -13z"/>
<path d="M1390 3063 c0 -13 -9 -32 -20 -43 l-20 -20 20 0 c25 0 45 44 30 68
-8 15 -9 14 -10 -5z"/>
<path d="M1416 2985 c10 -8 24 -14 29 -14 6 0 1 6 -9 14 -11 8 -24 15 -30 15
-5 0 -1 -7 10 -15z"/>
<path d="M753 2884 c43 -55 96 -104 113 -104 4 0 -12 20 -35 45 -24 26 -39 50
-35 57 4 6 3 8 -3 5 -6 -4 -13 -1 -16 6 -3 6 -20 21 -38 31 -33 20 -33 19 14
-40z"/>
<path d="M3885 2920 c-10 -11 -16 -22 -14 -24 2 -2 12 7 22 20 22 29 17 32 -8
4z"/>
<path d="M1361 2905 c-1 -23 27 -123 44 -155 25 -49 55 -85 70 -85 7 0 43 -28
80 -62 82 -75 143 -119 153 -109 4 4 -2 12 -13 19 -11 6 -45 34 -75 62 -30 28
-79 70 -108 94 -29 24 -62 62 -74 85 -11 22 -26 47 -32 55 -6 7 -19 34 -28 60
-9 25 -17 42 -17 36z"/>
<path d="M5243 2842 c-62 -40 -65 -49 -6 -16 29 16 53 32 53 37 0 9 2 10 -47
-21z"/>
<path d="M5620 2795 c0 -8 -6 -15 -13 -15 -8 0 -27 -13 -43 -30 -16 -16 -34
-30 -40 -30 -20 0 -64 -41 -57 -53 4 -7 0 -8 -12 -3 -16 6 -16 4 -4 -11 7 -10
10 -15 5 -11 -5 4 -24 -8 -43 -27 -19 -19 -38 -35 -42 -35 -14 0 -71 -60 -69
-72 2 -7 -4 -12 -13 -10 -9 1 -19 -4 -22 -13 -4 -9 -13 -12 -24 -9 -15 5 -15
4 -3 -5 12 -8 11 -11 -5 -17 -24 -9 -71 -44 -59 -44 4 0 -1 -6 -11 -14 -11 -8
-24 -12 -30 -9 -5 4 -7 3 -3 -2 10 -11 -39 -48 -53 -39 -8 4 -9 3 -5 -4 4 -6
-5 -19 -21 -29 -15 -10 -35 -25 -44 -33 -97 -90 -129 -123 -147 -154 -23 -39
-29 -86 -12 -86 6 0 10 14 10 31 0 26 14 45 78 108 42 42 124 112 182 154 58
43 122 91 143 108 20 16 42 27 47 24 6 -4 9 -1 8 6 -2 6 3 14 11 17 9 3 11 0
6 -8 -6 -9 -4 -11 4 -6 7 5 10 10 7 13 -3 3 2 12 11 21 13 13 23 17 66 21 5 1
5 6 1 12 -13 22 20 28 38 7 10 -12 21 -18 24 -15 4 3 -1 13 -10 22 -24 25 -19
29 10 10 26 -16 26 -16 19 7 -5 20 -5 21 6 5 9 -16 6 -24 -20 -51 -19 -20 -29
-39 -26 -48 4 -10 -3 -19 -23 -27 -22 -9 -28 -17 -25 -35 3 -16 -2 -25 -19
-33 -14 -6 -67 -57 -119 -113 -243 -264 -291 -304 -376 -314 -35 -5 -42 -1
-92 47 -31 30 -48 42 -40 28 26 -47 74 -93 149 -143 41 -27 79 -56 83 -64 4
-8 15 -14 22 -14 8 0 15 -4 15 -10 0 -5 11 -12 25 -16 14 -3 23 -10 20 -14 -3
-5 23 -27 57 -50 33 -23 79 -60 102 -81 22 -22 46 -39 53 -39 7 0 13 -4 13 -9
0 -5 18 -28 40 -51 22 -23 40 -45 40 -49 0 -4 11 -14 25 -21 14 -7 25 -17 25
-21 0 -5 11 -20 24 -35 42 -47 56 -64 56 -69 0 -2 16 -30 36 -61 20 -32 47
-82 60 -113 l23 -56 0 245 c1 135 -3 240 -7 233 -10 -16 -82 -6 -108 16 -28
22 -47 59 -40 77 3 9 1 12 -4 9 -6 -3 -10 1 -10 10 0 11 5 15 16 11 8 -3 12
-2 9 4 -3 6 -12 10 -19 10 -15 0 -30 56 -19 73 4 6 0 8 -10 4 -11 -4 -14 -2
-11 8 3 8 -6 39 -21 69 -16 33 -25 63 -21 73 4 10 4 14 0 10 -4 -3 -19 28 -34
71 -15 42 -36 95 -46 116 -14 30 -16 40 -6 43 6 3 10 9 6 14 -3 5 0 9 7 9 7 0
24 13 38 28 14 16 55 44 90 62 35 19 77 51 94 72 16 20 33 35 37 33 5 -3 11 2
14 11 4 10 2 13 -7 8 -6 -4 -3 3 8 15 11 12 21 18 23 12 2 -6 8 -9 13 -5 13 7
12 354 -1 354 -5 0 -10 -7 -10 -15z m-335 -663 c9 -20 13 -42 10 -49 -3 -9 0
-11 7 -7 8 5 9 2 5 -11 -4 -9 -3 -23 2 -29 5 -6 11 -24 13 -41 1 -16 8 -29 14
-28 6 1 9 -10 6 -27 -2 -17 -1 -38 3 -47 4 -10 9 -29 10 -43 2 -14 7 -43 13
-65 17 -67 22 -138 11 -151 -11 -13 -60 17 -156 95 -36 29 -41 37 -32 53 10
18 8 18 -11 8 -17 -9 -28 -6 -68 21 -26 18 -69 47 -95 65 l-48 32 34 20 c32
20 133 120 212 209 20 24 41 40 46 37 5 -3 16 -22 24 -42z"/>
<path d="M2762 2791 c-7 -4 -14 -14 -15 -22 -2 -8 -5 -18 -8 -24 -4 -5 -10
-28 -13 -50 -4 -22 -17 -51 -29 -64 -12 -13 -17 -22 -12 -20 39 17 65 34 66
43 3 53 9 79 21 94 34 39 27 67 -10 43z"/>
<path d="M803 2567 c-4 -8 -17 -17 -27 -20 -10 -4 -16 -10 -13 -13 8 -8 44 13
51 31 7 19 0 20 -11 2z"/>
<path d="M3000 2490 c-25 -22 -40 -40 -35 -40 6 0 30 18 55 40 25 22 41 39 35
39 -5 0 -30 -18 -55 -39z"/>
<path d="M2608 2453 c6 -2 18 -2 25 0 6 3 1 5 -13 5 -14 0 -19 -2 -12 -5z"/>
<path d="M1283 2418 c-31 -66 -185 -200 -347 -301 -55 -33 -81 -56 -91 -80
-12 -29 -12 -33 5 -39 9 -3 27 -23 40 -43 12 -20 45 -53 74 -74 28 -21 63 -52
78 -68 35 -36 98 -160 98 -191 0 -28 37 -102 50 -102 6 0 7 25 3 63 -8 75 -63
192 -121 254 -21 24 -37 45 -34 47 2 3 -5 2 -17 -1 -12 -3 -21 -1 -21 5 0 6
-13 19 -29 28 -19 11 -27 23 -23 32 4 11 1 14 -11 9 -11 -4 -18 1 -22 14 -4
10 -11 19 -16 19 -5 0 -9 11 -9 25 0 14 -5 25 -12 25 -7 0 4 11 23 25 19 14
42 24 52 21 10 -2 17 1 17 9 0 17 27 27 34 12 3 -9 5 -9 5 0 1 20 199 162 240
173 21 5 45 18 52 27 13 16 11 16 -14 0 -44 -28 -43 -13 1 32 24 25 49 41 63
41 18 0 20 3 10 9 -8 5 -20 7 -27 4 -7 -3 -14 5 -16 18 -4 31 -22 34 -35 7z"/>
<path d="M4531 2388 c-21 -40 -21 -41 -2 -19 17 19 24 21 36 11 18 -15 19 -3
2 28 -13 22 -13 22 -36 -20z"/>
<path d="M828 2354 c-21 -19 -38 -38 -38 -40 0 -11 60 38 70 57 15 26 11 24
-32 -17z"/>
<path d="M4611 2323 c7 -12 15 -20 18 -17 3 2 -3 12 -13 22 -17 16 -18 16 -5
-5z"/>
<path d="M2892 2290 c0 -14 2 -19 5 -12 2 6 2 18 0 25 -3 6 -5 1 -5 -13z"/>
<path d="M1423 2258 c-38 -46 -39 -60 -14 -107 20 -39 34 -29 30 22 -3 48 0
69 9 63 5 -3 9 0 10 7 0 7 4 22 7 35 11 33 -6 26 -42 -20z"/>
<path d="M4668 2220 c20 -38 38 -67 40 -66 5 5 -56 123 -67 130 -5 3 7 -25 27
-64z"/>
<path d="M4385 2108 c-80 -170 -145 -323 -145 -344 0 -17 91 162 137 271 32
75 73 188 69 192 -2 2 -29 -52 -61 -119z"/>
<path d="M27 2184 c-16 -13 -27 -29 -25 -35 2 -5 19 6 38 26 39 40 29 47 -13
9z"/>
<path d="M669 2079 c-23 -19 -23 -20 -2 -10 12 6 25 16 28 21 10 16 -1 12 -26
-11z"/>
<path d="M915 2060 c-16 -11 -25 -20 -19 -20 11 0 64 39 54 40 -3 0 -18 -9
-35 -20z"/>
<path d="M596 1952 c-7 -12 35 -73 46 -66 7 4 4 10 -6 16 -9 5 -16 18 -16 28
0 21 -16 35 -24 22z"/>
<path d="M3695 1879 c-27 -34 -67 -74 -87 -90 -20 -16 -46 -49 -58 -74 -12
-24 -37 -58 -56 -75 -19 -16 -31 -30 -26 -30 20 0 79 48 112 91 19 26 66 85
103 133 78 99 88 137 12 45z"/>
<path d="M5471 1774 c0 -11 3 -14 6 -6 3 7 2 16 -1 19 -3 4 -6 -2 -5 -13z"/>
<path d="M1321 1670 c0 -8 4 -24 8 -34 6 -17 8 -17 14 -4 3 9 -1 24 -8 35 -11
14 -14 15 -14 3z"/>
<path d="M1477 1630 c12 -19 35 -60 53 -90 38 -66 40 -68 40 -48 0 9 -21 47
-46 84 -53 78 -78 107 -47 54z"/>
<path d="M2173 1543 c-134 -241 -173 -324 -213 -441 -22 -68 -43 -144 -45
-170 l-5 -47 15 53 c8 29 24 75 36 103 l22 49 14 -27 c8 -15 16 -59 19 -98 3
-38 12 -99 20 -135 8 -35 17 -104 19 -153 3 -48 8 -94 11 -100 4 -7 -3 -3 -16
8 l-23 20 12 -22 c14 -27 14 -46 0 -38 -6 4 -9 1 -7 -6 1 -8 -19 -52 -46 -98
-44 -77 -71 -162 -50 -160 12 1 148 280 172 354 11 33 22 86 25 118 6 67 13
81 23 42 9 -34 21 -21 29 32 4 33 1 52 -17 85 -20 37 -23 56 -21 138 6 210 17
249 105 345 16 17 28 36 28 43 0 7 5 10 12 6 6 -4 8 -3 5 2 -3 5 14 39 38 74
25 39 38 67 31 69 -6 2 -30 12 -52 22 l-42 17 -31 -30 c-35 -34 -38 -31 -15
13 8 17 13 33 11 35 -3 3 -32 -44 -64 -103z m-132 -428 c5 4 9 -12 9 -35 0
-26 -4 -39 -10 -35 -6 4 -8 14 -5 24 3 9 -1 25 -8 35 -8 11 -11 30 -8 45 6 25
6 25 9 -7 2 -18 8 -30 13 -27z m67 -267 c15 -15 16 -82 2 -73 -5 3 -10 15 -10
26 0 10 -4 19 -10 19 -5 0 -10 9 -10 20 0 23 10 26 28 8z m9 -120 c-3 -7 -5
-2 -5 12 0 14 2 19 5 13 2 -7 2 -19 0 -25z"/>
<path d="M623 1585 c0 -33 2 -45 4 -27 2 18 2 45 0 60 -2 15 -4 0 -4 -33z"/>
<path d="M1351 1604 c0 -11 3 -14 6 -6 3 7 2 16 -1 19 -3 4 -6 -2 -5 -13z"/>
<path d="M3120 1509 c-30 -23 -50 -39 -45 -37 25 9 115 64 115 71 0 14 -15 6
-70 -34z"/>
<path d="M630 1425 c0 -49 3 -85 6 -82 7 7 6 159 -2 166 -2 2 -4 -35 -4 -84z"/>
<path d="M2670 1453 c-19 -92 -39 -171 -75 -283 -60 -187 -85 -302 -84 -387 1
-114 14 -140 15 -31 0 80 5 105 33 178 46 119 147 580 128 580 -3 0 -11 -26
-17 -57z"/>
<path d="M2876 1463 c11 -103 15 -113 65 -170 64 -74 210 -276 237 -329 26
-51 45 -164 37 -219 -3 -22 -19 -85 -35 -140 -35 -123 -45 -175 -65 -340 -23
-197 -24 -265 -4 -265 12 0 15 7 12 24 -3 13 0 49 7 80 l11 56 26 -20 c26 -21
47 -50 59 -82 3 -10 10 -18 15 -18 5 0 9 -9 9 -20 0 -19 7 -20 165 -20 163 0
166 0 155 20 -6 11 -15 18 -21 14 -5 -3 -30 10 -54 30 -24 20 -50 36 -58 36
-8 0 -17 6 -20 14 -3 7 -17 16 -32 20 -14 4 -40 22 -57 42 -17 19 -33 33 -35
30 -7 -7 -53 40 -54 55 0 8 -4 5 -9 -6 -8 -18 -9 -18 -9 6 -1 32 24 209 44
312 28 144 14 266 -41 366 -13 25 -55 85 -93 133 -38 48 -81 107 -97 133 -16
25 -39 62 -52 82 -25 38 -40 93 -26 93 5 0 18 16 28 35 11 19 26 35 35 35 9 0
21 4 28 8 6 4 -16 7 -49 7 -50 0 -63 4 -78 23 -10 12 -25 22 -34 22 -13 0 -15
-9 -10 -47z"/>
<path d="M0 1256 c0 -186 2 -206 17 -206 9 0 25 7 35 16 13 13 44 18 120 21
57 3 105 9 106 14 5 13 24 11 20 -2 -4 -12 -138 -51 -240 -70 l-58 -11 0 -40
0 -41 46 7 c26 3 75 6 109 6 60 0 63 1 75 29 6 17 10 33 7 38 -3 4 5 8 16 9
12 0 55 6 96 12 58 8 90 8 158 -4 84 -15 176 -12 199 7 18 15 43 -23 43 -66 0
-22 -1 -71 -2 -110 -2 -58 2 -79 25 -127 15 -32 32 -58 38 -58 5 0 9 -3 8 -7
-5 -17 22 -74 32 -68 7 4 8 11 1 18 -5 7 -14 38 -20 70 -6 31 -15 66 -21 76
-13 26 -14 52 0 31 8 -12 10 -11 10 8 0 33 1 36 12 50 7 8 7 12 -1 12 -6 0
-11 6 -11 14 0 7 -20 53 -45 102 -26 50 -45 102 -45 120 0 17 -7 38 -16 45
-18 15 -31 45 -39 90 -3 17 -12 41 -21 54 -12 18 -12 24 -2 28 8 4 7 6 -4 6
-15 1 -17 -5 -13 -36 6 -46 24 -93 36 -93 5 0 9 -6 9 -12 0 -7 9 -24 20 -38
25 -32 25 -52 1 -74 -14 -13 -24 -15 -38 -8 -23 12 -228 72 -246 72 -7 0 -23
11 -35 25 -12 14 -46 41 -75 59 -28 18 -69 50 -89 69 -21 20 -53 46 -70 58
-18 13 -37 29 -41 36 -4 7 -13 13 -19 13 -5 0 -28 14 -49 31 l-39 31 0 -206z"/>
<path d="M5310 1396 c0 -2 8 -10 18 -17 15 -13 16 -12 3 4 -13 16 -21 21 -21
13z"/>
<path d="M240 966 c0 -9 5 -16 10 -16 6 0 10 4 10 9 0 6 -4 13 -10 16 -5 3
-10 -1 -10 -9z"/>
<path d="M57 853 c-8 -7 48 -50 77 -59 12 -4 35 -16 51 -29 17 -12 39 -25 51
-29 11 -3 35 -20 52 -37 18 -17 32 -28 32 -24 0 5 16 -8 35 -28 20 -21 39 -37
43 -37 4 0 53 -47 110 -104 l102 -105 -58 3 c-32 2 -83 9 -113 16 -151 34
-187 43 -226 61 -24 10 -47 19 -53 19 -13 0 -121 59 -142 78 -17 14 -18 0 -18
-281 l0 -297 250 0 c160 0 250 4 250 10 0 6 9 10 20 10 11 0 20 5 20 11 0 6 7
9 15 5 8 -3 15 -1 15 4 0 6 11 10 25 10 16 0 25 6 25 15 0 8 8 15 18 15 10 0
23 5 29 11 11 11 37 3 29 -9 -7 -12 216 -3 307 13 49 8 102 22 119 31 17 9 49
22 71 30 23 8 70 31 105 50 52 29 61 38 51 50 -6 8 -22 14 -35 14 -31 0 -31
17 1 77 58 112 78 170 86 247 4 44 6 83 4 87 -3 3 2 19 9 35 25 52 29 74 13
74 -13 0 -28 -15 -75 -75 -5 -5 -14 -32 -22 -60 -7 -27 -17 -56 -23 -62 -5 -7
-7 -19 -4 -28 4 -8 1 -20 -6 -27 -7 -7 -18 -31 -26 -53 -8 -22 -22 -51 -32
-64 -11 -13 -19 -29 -19 -35 0 -6 -10 -36 -23 -66 -50 -123 -92 -162 -176
-167 -55 -4 -58 -3 -141 57 -47 33 -110 86 -140 118 -62 63 -130 125 -130 118
0 -3 -12 7 -27 22 -15 15 -27 31 -25 35 1 5 -1 6 -5 4 -5 -3 -19 8 -33 24
-117 138 -257 258 -340 293 -25 10 -53 22 -62 27 -21 11 -52 12 -61 2z m526
-537 c-15 -19 -38 -41 -53 -48 -14 -7 -30 -19 -36 -27 -6 -7 -25 -14 -44 -15
-18 -1 -35 -7 -38 -14 -2 -6 -15 -12 -28 -12 -14 0 -23 -5 -21 -12 1 -9 -12
-14 -38 -15 l-40 -3 30 14 c17 8 24 15 18 15 -24 2 -13 17 31 41 25 13 43 27
40 32 -3 4 7 10 21 14 14 3 25 10 25 14 0 12 96 41 113 34 8 -3 18 -1 22 5 3
6 11 11 16 11 5 0 -2 -15 -18 -34z m122 -8 c20 -21 23 -28 10 -21 -25 14 -61
53 -49 53 5 0 22 -14 39 -32z m-51 -190 c-31 -15 -49 -19 -70 -13 l-29 8 33 7
c18 4 36 10 39 14 4 3 20 6 37 5 l31 0 -41 -21z m-104 -28 c0 -5 -4 -10 -10
-10 -5 0 -10 5 -10 10 0 6 5 10 10 10 6 0 10 -4 10 -10z"/>
<path d="M920 714 c0 -6 7 -19 16 -30 14 -18 14 -18 3 6 -14 31 -19 36 -19 24z"/>
<path d="M2454 415 c4 -175 13 -235 37 -235 7 0 18 -8 25 -17 12 -16 15 -16
23 -3 7 10 5 22 -6 39 -8 13 -18 53 -21 88 -4 56 -3 63 14 63 14 0 15 3 6 12
-17 17 -15 48 3 48 21 0 19 5 -17 67 -18 30 -41 69 -51 86 -17 31 -18 29 -13
-148z"/>
<path d="M4830 583 c0 -15 19 -37 26 -31 3 4 -1 14 -10 23 -9 9 -16 13 -16 8z"/>
<path d="M1700 524 c0 -19 -43 -98 -103 -189 -62 -95 -183 -207 -263 -244 -38
-18 -76 -36 -85 -41 -8 -4 -49 -15 -90 -25 -40 -9 -78 -19 -84 -20 -5 -2 98
-4 231 -4 l240 0 -2 31 c-1 18 7 54 18 82 11 28 25 66 30 84 5 18 22 54 38 80
62 102 100 192 93 223 -6 33 -23 50 -23 23z"/>
<path d="M3921 494 c0 -11 3 -14 6 -6 3 7 2 16 -1 19 -3 4 -6 -2 -5 -13z"/>
<path d="M3935 435 c4 -22 20 -100 36 -174 17 -74 30 -154 31 -179 0 -29 4
-39 9 -31 6 9 7 1 3 -18 l-6 -33 51 0 c50 0 50 0 39 25 -6 13 -15 22 -20 19
-5 -3 -8 -2 -7 3 4 24 -2 53 -11 48 -15 -10 -47 73 -85 226 -36 142 -53 192
-40 114z"/>
<path d="M2570 381 c0 -5 7 -12 16 -15 14 -5 15 -4 4 9 -14 17 -20 19 -20 6z"/>
<path d="M1750 358 c0 -10 -42 -215 -54 -268 -18 -75 -19 -90 -8 -90 5 0 14
30 20 68 11 59 23 124 47 255 4 20 5 37 1 37 -3 0 -6 -1 -6 -2z"/>
<path d="M2600 344 c0 -5 9 -27 20 -49 13 -26 16 -42 10 -50 -6 -7 -7 -29 -4
-51 4 -22 8 -57 9 -79 3 -69 5 -76 14 -71 5 3 16 -5 25 -19 15 -22 23 -25 82
-25 50 0 63 3 57 12 -4 7 -9 24 -11 38 -2 13 -6 27 -10 30 -14 10 -72 99 -72
109 0 6 -4 11 -9 11 -5 0 -13 9 -16 20 -3 11 -12 26 -18 32 -7 7 -27 33 -45
57 -17 25 -32 41 -32 35z"/>
<path d="M3550 96 c0 -4 7 -14 15 -22 8 -9 15 -11 15 -6 0 5 -7 15 -15 22 -8
7 -15 9 -15 6z"/>
<path d="M2102 65 c0 -16 2 -22 5 -12 2 9 2 23 0 30 -3 6 -5 -1 -5 -18z"/>
<path d="M1831 48 c-1 -9 -4 -23 -7 -32 -4 -11 -1 -16 10 -16 17 0 19 14 6 45
-7 16 -9 17 -9 3z"/>
<path d="M3599 29 c4 -13 14 -25 20 -27 10 -3 10 0 2 16 -16 30 -33 38 -22 11z"/>
<path d="M1947 21 c3 -12 10 -21 15 -21 13 0 6 32 -9 37 -7 3 -9 -3 -6 -16z"/>
</g>
</svg>
